<svg xmlns="http://www.w3.org/2000/svg" viewBox="0 0 120.00 120.00" width="120" height="120"><defs><linearGradient id="tile" x1="0.12" y1="0" x2="0.6" y2="1"><stop offset="0" stop-color="#2a3038"/><stop offset="1" stop-color="#1a1d23"/></linearGradient></defs><rect x="0.75" y="0.75" width="118.50" height="118.50" rx="28.89" fill="url(#tile)" stroke="#ffffff" stroke-opacity="0.10" stroke-width="1.5"/><path transform="translate(46.000 44.822) scale(0.022222 -0.022222)" fill="#f56600" d="M70.0 49V185L346.0 306Q366.0 315 388.0 321.0Q410.0 327 423.0 329Q410.0 331 388.0 336.5Q366.0 342 346.0 351L70.0 472V609L530.0 401V258Z"/><path transform="translate(46.000 44.822) scale(0.022222 -0.022222)" fill="#00b2e8" d="M710.0 -165V-25H1190.0V-165Z"/><path transform="translate(30.330 88.200) scale(0.051111 -0.051111)" fill="#ffffff" d="M355.0 0Q271.0 0 223.0 48.0Q175.0 96 175.0 180V415H27.0V550H175.0V705H325.0V550H540.0V415H325.0V185Q325.0 163 336.5 149.0Q348.0 135 370.0 135H535.0V0ZM838.0 -10Q759.0 -10 709.5 48.5Q660.0 107 660.0 205V345Q660.0 443 709.5 501.5Q759.0 560 838.0 560Q893.0 560 931.5 532.5Q970.0 505 988.0 454L984.0 580V730H1134.0V0H989.0V99Q971.0 47 932.0 18.5Q893.0 -10 838.0 -10ZM896.0 120Q939.0 120 961.5 144.5Q984.0 169 984.0 215V335Q984.0 381 961.5 405.5Q939.0 430 896.0 430Q855.0 430 832.5 407.0Q810.0 384 810.0 340V210Q810.0 167 832.5 143.5Q855.0 120 896.0 120Z"/></svg>