<svg xmlns="http://www.w3.org/2000/svg" viewBox="0 0 695.30 113.00" width="695" height="113"><defs><linearGradient id="tile" x1="0.12" y1="0" x2="0.6" y2="1"><stop offset="0" stop-color="#2a3038"/><stop offset="1" stop-color="#1a1d23"/></linearGradient></defs><path transform="translate(3.300 -11.000) scale(0.100000 -0.100000)" fill="#14171c" d="M355.0 0Q271.0 0 223.0 48.0Q175.0 96 175.0 180V415H27.0V550H175.0V705H325.0V550H540.0V415H325.0V185Q325.0 163 336.5 149.0Q348.0 135 370.0 135H535.0V0ZM875.0 -10Q802.0 -10 748.0 17.5Q694.0 45 664.5 94.5Q635.0 144 635.0 210V340Q635.0 406 664.5 455.5Q694.0 505 748.0 532.5Q802.0 560 875.0 560Q949.0 560 1002.5 532.5Q1056.0 505 1085.5 455.5Q1115.0 406 1115.0 340V210Q1115.0 144 1085.5 94.5Q1056.0 45 1002.5 17.5Q949.0 -10 875.0 -10ZM875.0 120Q919.0 120 942.0 143.5Q965.0 167 965.0 210V340Q965.0 384 942.0 407.0Q919.0 430 875.0 430Q832.0 430 808.5 407.0Q785.0 384 785.0 340V210Q785.0 167 808.5 143.5Q832.0 120 875.0 120ZM1505.0 0Q1421.0 0 1373.0 48.0Q1325.0 96 1325.0 180V415H1177.0V550H1325.0V705H1475.0V550H1690.0V415H1475.0V185Q1475.0 163 1486.5 149.0Q1498.0 135 1520.0 135H1685.0V0ZM1954.0 -10Q1872.0 -10 1824.0 37.5Q1776.0 85 1776.0 162Q1776.0 245 1835.0 293.0Q1894.0 341 2001.0 341H2109.0V376Q2109.0 407 2087.5 424.5Q2066.0 442 2026.0 442Q1988.0 442 1965.5 427.0Q1943.0 412 1941.0 383H1799.0Q1802.0 464 1863.0 512.0Q1924.0 560 2028.0 560Q2137.0 560 2198.0 510.0Q2259.0 460 2259.0 370V0H2114.0V95Q2104.0 46 2061.5 18.0Q2019.0 -10 1954.0 -10ZM2007.0 110Q2054.0 110 2081.5 133.5Q2109.0 157 2109.0 195V251H2004.0Q1964.0 251 1942.5 231.5Q1921.0 212 1921.0 181Q1921.0 150 1943.5 130.0Q1966.0 110 2007.0 110ZM2695.0 0Q2637.0 0 2593.0 24.5Q2549.0 49 2524.5 93.0Q2500.0 137 2500.0 195V595H2325.0V730H2650.0V200Q2650.0 171 2666.5 153.0Q2683.0 135 2710.0 135H2865.0V0Z"/><path transform="translate(3.300 -11.000) scale(0.100000 -0.100000)" fill="#f56600" d="M3305.0 -111Q3246.0 -111 3203.0 -87.5Q3160.0 -64 3139.5 -22.5Q3119.0 19 3125.0 74L3140.0 219Q3143.0 251 3126.5 270.0Q3110.0 289 3080.0 289H2940.0V429H3080.0Q3110.0 429 3126.5 448.5Q3143.0 468 3140.0 499L3125.0 650Q3120.0 704 3140.5 744.5Q3161.0 785 3203.5 807.5Q3246.0 830 3305.0 830H3390.0V690H3335.0Q3306.0 690 3289.5 673.5Q3273.0 657 3275.0 630L3290.0 479Q3294.0 433 3263.5 401.5Q3233.0 370 3178.0 360Q3233.0 351 3263.5 318.5Q3294.0 286 3290.0 239L3275.0 89Q3272.0 62 3288.5 45.5Q3305.0 29 3335.0 29H3390.0V-111ZM6410.0 -111V29H6465.0Q6495.0 29 6511.5 45.5Q6528.0 62 6525.0 89L6510.0 239Q6506.0 286 6536.5 318.5Q6567.0 351 6622.0 360Q6567.0 370 6536.5 401.5Q6506.0 433 6510.0 479L6525.0 630Q6527.0 657 6510.5 673.5Q6494.0 690 6465.0 690H6410.0V830H6495.0Q6554.0 830 6596.0 807.5Q6638.0 785 6659.5 744.5Q6681.0 704 6675.0 650L6660.0 499Q6657.0 468 6673.5 448.5Q6690.0 429 6720.0 429H6860.0V289H6720.0Q6690.0 289 6673.5 270.0Q6657.0 251 6660.0 219L6675.0 74Q6681.0 19 6660.0 -22.5Q6639.0 -64 6596.5 -87.5Q6554.0 -111 6495.0 -111Z"/><path transform="translate(3.300 -11.000) scale(0.100000 -0.100000)" fill="#00b2e8" d="M3688.0 -10Q3609.0 -10 3559.5 48.5Q3510.0 107 3510.0 205V345Q3510.0 443 3559.5 501.5Q3609.0 560 3688.0 560Q3743.0 560 3781.5 532.5Q3820.0 505 3838.0 454L3834.0 580V730H3984.0V0H3839.0V99Q3821.0 47 3782.0 18.5Q3743.0 -10 3688.0 -10ZM3746.0 120Q3789.0 120 3811.5 144.5Q3834.0 169 3834.0 215V335Q3834.0 381 3811.5 405.5Q3789.0 430 3746.0 430Q3705.0 430 3682.5 407.0Q3660.0 384 3660.0 340V210Q3660.0 167 3682.5 143.5Q3705.0 120 3746.0 120ZM4326.0 -10Q4253.0 -10 4198.5 17.5Q4144.0 45 4114.5 94.5Q4085.0 144 4085.0 210V340Q4085.0 406 4114.5 455.5Q4144.0 505 4198.5 532.5Q4253.0 560 4326.0 560Q4399.0 560 4452.5 532.5Q4506.0 505 4535.5 455.5Q4565.0 406 4565.0 340V238H4228.0V210Q4228.0 158 4252.5 134.0Q4277.0 110 4326.0 110Q4358.0 110 4382.0 120.0Q4406.0 130 4410.0 150H4557.0Q4541.0 78 4478.0 34.0Q4415.0 -10 4326.0 -10ZM4228.0 340V327L4422.0 329V342Q4422.0 393 4398.5 421.0Q4375.0 449 4326.0 449Q4277.0 449 4252.5 420.0Q4228.0 391 4228.0 340ZM4962.0 -10Q4907.0 -10 4868.0 18.5Q4829.0 47 4811.0 99V0H4666.0V730H4816.0V580L4812.0 454Q4830.0 505 4868.5 532.5Q4907.0 560 4962.0 560Q5042.0 560 5091.0 501.5Q5140.0 443 5140.0 345V205Q5140.0 107 5091.0 48.5Q5042.0 -10 4962.0 -10ZM4904.0 120Q4945.0 120 4967.5 143.5Q4990.0 167 4990.0 210V340Q4990.0 384 4967.5 407.0Q4945.0 430 4904.0 430Q4861.0 430 4838.5 405.5Q4816.0 381 4816.0 335V215Q4816.0 169 4838.5 144.5Q4861.0 120 4904.0 120ZM5475.0 -10Q5364.0 -10 5301.5 50.0Q5239.0 110 5239.0 214V550H5389.0V215Q5389.0 120 5475.0 120Q5516.0 120 5538.5 144.5Q5561.0 169 5561.0 215V550H5711.0V214Q5711.0 109 5648.0 49.5Q5585.0 -10 5475.0 -10ZM5895.0 -180V-60H6050.0Q6092.0 -60 6114.5 -39.0Q6137.0 -18 6137.0 19V40L6138.0 122Q6118.0 78 6081.0 54.0Q6044.0 30 5993.0 30Q5910.0 30 5860.0 88.0Q5810.0 146 5810.0 245V345Q5810.0 443 5860.0 501.5Q5910.0 560 5993.0 560Q6045.0 560 6082.0 535.5Q6119.0 511 6139.0 467V550H6284.0V14Q6284.0 -76 6222.5 -128.0Q6161.0 -180 6055.0 -180ZM6047.0 160Q6088.0 160 6111.0 183.5Q6134.0 207 6134.0 250V340Q6134.0 383 6111.0 406.5Q6088.0 430 6047.0 430Q6005.0 430 5982.5 406.5Q5960.0 383 5960.0 340V250Q5960.0 207 5982.5 183.5Q6005.0 160 6047.0 160Z"/></svg>